# xmcd
# Track frame offsets:
# 150
# 20100
# 33564
# 48336
# 61462
#
# Disc length: 968 seconds
# Revision: 0
# Processed by: cddbd v1.4PL0 Copyright (c) Steve Scherf et al.
# Submitted via: VisiTrax 2.9.5.181 - For more info visit www.synapsa.com
#
DISCID=4103c605
DTITLE=The Boogie Dukes - The Boogie Dukes ( Demo )
DYEAR=2003
DGENRE=Blues
TTITLE0=300 LBS of joy
TTITLE1=New Orleans
TTITLE2=Mr Pitiful
TTITLE3=She´s tuff
TTITLE4=I believe I´m in love
EXTD=
EXTT0=
EXTT1=
EXTT2=
EXTT3=
EXTT4=
PLAYORDER=
